Patient4_TMGait_0pt5_02_left_13_EMG.mot
version=1
nRows=23
nColumns=33
inDegrees=no
endheader
time	1LAddLong	2LGlutMax	3LGlutMed	4LIliopsoas	5LSemiMemb	6LBicFemLong	7LRecFem	8LVastMed	9LVastLat	10LGasMed	11LTibAnt	12lTibPost	13LPeroneusLong	14LSol	15LExtDigLong	16LFlexDigLong	17RAddLong	18RGlutMax	19RGlutMed	20RIliopsoas	21RSemiMemb	22RBicFemLong	23RRecFem	24RVastMed	25RVastLat	26RGasMed	27RTibAnt	28RTibPost	29RPeroneusLong	30RSol	31RExtDigLong	32RFlexDigLong
17.695	0.011292	-0.12344	0.058899	0.037689	-0.001373	-0.014191	-0.082397	0.010986	0.011292	0.006409	0.004425	-0.005646	-0.075378	-0.076294	0.012665	0.014801	0.010834	0.001373	-0.021515	0.071869	0.068359	-0.12955	0.008392	0.38483	-0.044403	-0.029907	-0.026855	-0.001068	0.052948	-0.039673	0.000458	-0.007477
17.696	0.009766	-0.14282	-0.018463	0.025024	0.003815	-0.018768	-0.088043	0.007324	0.017853	-0.011749	0.013885	-0.015564	-0.041351	-0.070038	-0.024109	0	-0.006866	-0.035248	0.14572	0.017853	0.081024	0.028381	0.057373	0.18936	-0.13123	-0.028076	-0.017395	-0.018463	0.053864	-0.010529	0.000305	-0.013428
17.697	0.009613	-0.15305	0.028534	0.000305	0.030518	-0.015564	-0.088654	0.007324	0.014496	-0.03891	0.003815	0.016937	0.007477	-0.047913	-0.026245	-0.003204	-0.019684	-0.045624	0.11932	-0.001831	-0.10834	0.20004	0.11459	0.046539	0.14633	-0.013428	0.000305	-0.025787	-0.009003	-0.025177	0.000458	-0.007324
17.698	0.005035	-0.17502	-0.00824	-0.015106	0.03479	0.007782	-0.089722	0.010529	0.014496	-0.038147	0.002899	0.016785	0.021973	-0.076599	-0.020905	0.01297	-0.021057	0.024109	0.29205	-0.080566	-0.22385	0.23666	0.15335	-0.00351	0.12573	0	-0.007019	-0.025787	0.009766	0.016785	0.000763	-0.010681
17.699	0.010986	-0.16174	-0.063019	-0.007324	0.020294	0.017548	-0.10559	0.007324	0.021667	-0.025024	0.006256	0.001526	0.024109	-0.063934	-0.019989	0.00412	-0.002136	0.007172	0.16266	-0.086365	-0.11749	0.10666	0.14023	-0.010223	-0.24536	0.004272	-0.008392	-0.022125	0.036163	0.002136	-0.000153	-0.013123
17.7	-0.006866	-0.16602	-0.13107	-0.013733	0	0.007782	-0.090179	0.011139	0.015869	-0.039368	-0.005951	-0.006866	0.022736	-0.05722	-0.007935	0.006409	-0.001221	-0.084381	-0.099335	-0.06073	-0.011139	-0.086975	0.15793	0.13947	-0.65811	0.008545	0.020142	-0.022278	0.0354	-0.053101	0.002747	-0.009155
17.701	-0.034485	-0.12177	-0.064087	-0.002136	-0.031433	-0.019684	-0.089569	0.008392	0.016327	-0.040894	-0.001984	0.010376	0.003662	-0.10864	-0.000458	0.009308	0.001221	-0.042114	-0.28992	-0.036316	0.079651	-0.2179	-0.061798	0.098724	-0.42557	0.006561	0.006256	-0.021057	0.068665	-0.061188	0.005188	-0.012817
17.702	-0.022888	-0.12131	0.092468	0.003357	-0.016632	-0.020905	-0.099945	0.00824	0.019836	-0.040436	0.007782	-0.001526	-0.007629	-0.17059	-0.001373	0.006866	0.001678	0.003204	-0.20004	0.030823	0.065613	-0.19226	-0.31876	-0.029449	-0.2446	0.004883	0.009613	-0.019226	0.046234	-0.099335	0.003052	-0.010986
17.703	-0.021667	-0.13153	0.030365	0.010071	-0.018921	0.004578	-0.094452	0.001831	0.013733	-0.033264	0.003815	0.007629	-0.038605	-0.1474	0.009155	-0.004883	0.02594	0.053864	0.1294	0.013123	0.050812	-0.10742	-0.14496	-0.047913	-0.1062	0.005188	-0.007477	-0.02182	-0.085907	-0.12329	0.002899	-0.009918
17.704	0.011292	-0.17166	0.065002	0.012207	-0.019836	0.0383	-0.093231	0.007019	0.024567	-0.029907	0.011292	0.004883	-0.056	-0.13001	0.014038	-0.006561	0.038757	-0.011292	0.57938	0.018921	0.10681	-0.013428	0.040131	-0.028381	-0.082703	0.003357	-0.000458	-0.016327	-0.22919	-0.1152	0.000153	-0.011444
17.705	0.008392	-0.20645	0.07782	0.004578	-0.016022	-0.000458	-0.10132	0.005798	0.013885	-0.040588	-0.004883	0.007477	-0.062103	-0.093994	0.020905	-0.001526	-0.003967	-0.028687	0.19089	0.13382	0.096741	0.031891	0.022278	0.027008	-0.049133	-0.004272	0.015717	-0.014496	-0.28397	-0.084839	0.005188	-0.016785
17.706	0.006256	-0.20248	0.062561	0.007782	-0.009003	-0.058594	-0.10986	0.006714	0.019379	-0.046234	0.008698	0.005798	-0.039673	-0.091248	0.009308	-0.00824	-0.058594	-0.014648	0.26169	0.23377	-0.10773	0.000458	0.026855	0.050049	-0.011902	-0.024414	0.005646	-0.01236	-0.26581	0.013733	0.003357	-0.012054
17.707	-0.001373	-0.16342	0.031586	-0.002441	0.033417	-0.046997	-0.095673	0.011597	0.016937	-0.039215	0.000305	0.001984	-0.051727	-0.1001	0.006104	0.007477	-0.035095	-0.009766	0.19943	0.16068	-0.00946	0.018921	0.076599	-0.045471	-0.02655	-0.016174	-0.036621	-0.019073	-0.18097	0.11063	0.000305	-0.002899
17.708	0.001221	-0.17777	-0.001984	-0.011444	0.021973	0.005493	-0.097351	0.007172	0.019836	-0.031433	0.003815	0.007019	-0.040436	-0.090027	0.005798	0.003204	0.007629	-0.049133	-0.026093	-0.001831	0.003204	0.1329	0.15686	-0.090027	-0.002441	0.010529	-0.033875	-0.025177	-0.003662	0.055084	0	0.000458
17.709	0.010529	-0.15427	-0.052338	0.007172	0.01236	0.005646	-0.11108	0.010071	0.010986	-0.038757	0.012512	-0.006714	-0.043793	-0.092773	0.005035	-0.001221	0.032043	-0.097656	0.063629	-0.024414	-0.042725	0.23071	0.17563	-0.078888	0.018005	0.054016	-0.01709	-0.027313	0.00061	-0.023651	0.00061	-0.003357
17.71	0.007782	-0.15274	-0.043182	-0.007019	0.017242	0.02655	-0.10086	0.016632	0.013275	-0.040588	-0.000458	-0.00946	-0.0383	-0.071411	0.005341	0.004425	0.019684	-0.058899	0.20905	-0.007324	-0.066223	0.14221	0.21744	-0.026093	0.023804	0.045013	0.006866	-0.042267	0.11307	-0.024109	0.001984	-0.010986
17.711	0.009918	-0.17716	-0.081482	0	0.007935	0.025024	-0.11948	0.007935	0.018005	-0.042267	-0.000305	-0.005798	-0.055389	-0.029755	0.004883	0.000916	-0.000458	-0.028839	0.10986	0.021362	-0.083771	0.061493	0.20447	-0.068817	0.021515	0.001221	0.011597	-0.030212	-0.009613	-0.012054	-0.002441	-0.007019
17.712	0.004272	-0.17731	-0.10162	0.00061	0.002594	0.011749	-0.10544	0.008392	0.012054	-0.040894	0.007172	-0.00412	-0.048218	-0.037689	0.000305	-0.003204	0.012817	-0.037994	0.5368	0.030975	0.043793	-0.050964	0.18417	-0.12482	0.016937	-0.027618	-0.008698	0.054779	0.095215	0.01297	0.00061	-0.009003
17.713	0.000763	-0.18356	-0.083923	-0.00824	0.002441	0.010834	-0.10346	0.008392	0.020447	-0.039673	0.003052	-0.011444	-0.049896	-0.045166	0.000305	-0.00885	-0.005188	-0.039673	0.50644	0.063324	-0.09964	-0.034637	-0.014801	-0.099487	-0.011444	-0.018311	-0.02655	0.020447	0.38162	0.18753	0.001373	-0.005493
17.714	0.006866	-0.17197	-0.004578	-0.016632	0.007172	0.018768	-0.10056	0.009003	0.019836	-0.032349	0.001984	0.009308	-0.05661	-0.01709	-0.000763	0.008392	-0.016785	-0.097809	0.12116	-0.005341	0.23346	0.1207	0.031586	-0.070648	-0.060425	-0.044861	0.025635	0.007935	0.34225	0.37842	0.007477	-0.010681
17.715	0.012207	-0.16907	-0.019379	-0.004272	0.013123	0.013733	-0.12497	0.00946	0.018158	-0.031586	0.001984	-0.022583	-0.042877	-0.009766	0.000763	0.00824	-0.020905	-0.11536	-0.41534	-0.006866	0.20187	0.077515	0.22873	-0.10422	-0.094299	-0.081024	0.015259	0.001068	0.24628	0.28229	-0.004272	-0.012817
17.716	0.007629	-0.17593	0.036163	0.005035	0.004272	0.023956	-0.12375	0.010834	0.011749	-0.028534	0.002747	-0.002899	-0.039215	-0.044098	0.000305	0.007782	-0.011139	-0.052032	-0.54855	0.002747	0.076141	-0.046692	0.17166	-0.066071	-0.059052	-0.11185	0.002441	-0.010681	0.16083	0.21042	0.002136	-0.003052
17.717	0.007172	-0.16022	0.075989	0.012512	-0.003815	0.007172	-0.14648	-0.003204	0.005493	-0.032349	-0.003052	-0.013123	-0.028229	-0.049744	0.004425	0.0177	-0.009766	-0.12039	-0.67505	-0.006561	-0.027161	-0.033569	0.052643	0.002594	-0.033569	-0.054169	-0.016479	-0.012512	0.09964	0.25085	0.00351	-0.010376
